<svg id="Layer_1" data-name="Layer 1" xmlns="http://www.w3.org/2000/svg" viewBox="0 0 356.05 356.04"><title>FEED 22</title><path d="M136.9,239.84c76,0,137.83,61.82,137.83,137.82a30.12,30.12,0,0,0,60.24,0c0-109.22-88.86-198.07-198.07-198.07a30.13,30.13,0,0,0,0,60.25Z" transform="translate(-94.29 -64.23)"/><path d="M124.41,359.15a31,31,0,0,1,31,31,30.13,30.13,0,0,0,60.25,0,91.34,91.34,0,0,0-91.24-91.24,30.12,30.12,0,0,0,0,60.24Z" transform="translate(-94.29 -64.23)"/><path d="M153.6,124.47C284,124.47,390.09,230.56,390.09,361a30.13,30.13,0,0,0,60.25,0c0-163.62-133.12-296.73-296.74-296.73a30.12,30.12,0,1,0,0,60.24Z" transform="translate(-94.29 -64.23)"/></svg>